<?xml version="1.0" encoding="utf-8"?>
<!DOCTYPE svg PUBLIC "-//W3C//DTD SVG 1.0//EN" "http://www.w3.org/TR/2001/REC-SVG-20010904/DTD/svg10.dtd">
<svg version="1.0" xmlns="http://www.w3.org/2000/svg" width="174px" height="121px" viewBox="0 0 174 121" preserveAspectRatio="xMidYMid meet">
 <g fill="#000000">
  <path d="M47 90.05 c0 -1.50 0.45 -2.50 1.95 -4.40 1.05 -1.30 2.50 -2.95 3.25 -3.60 0.90 -0.85 1.30 -1.75 1.30 -2.95 0 -1.25 1.35 -4.05 5.10 -10.50 2.80 -4.90 7.85 -13.70 11.25 -19.60 4.35 -7.60 6.45 -10.80 7.15 -10.90 0.75 -0.15 1 -0.55 1 -1.70 0 -0.95 1.25 -3.65 3.35 -7.35 5.55 -9.70 5.45 -9.55 7.35 -9.55 1.55 0 1.85 0.25 2.90 2.35 0.70 1.35 3.95 7.10 7.30 12.85 3.35 5.75 6.10 10.95 6.10 11.60 0 0.70 0.30 1.20 0.70 1.20 0.40 0 1.05 0.60 1.45 1.40 0.75 1.50 9 15.75 17.40 30.20 4.20 7.15 5.45 9.70 5.45 11.10 l0 1.80 -41.50 0 -41.50 0 0 -1.95z m44.65 -38.20 c-3.25 -3.15 -3.95 -3.65 -4.25 -2.90 -0.15 0.50 -1.50 2.15 -3 3.75 l-2.70 2.90 3.55 3.45 3.50 3.40 3.40 -3.35 3.40 -3.40 -3.90 -3.85z"/>
 </g>
 <g fill="#ffffff">
  <path d="M0 60.50 l0 -60.50 87 0 87 0 0 60.50 0 60.50 -87 0 -87 0 0 -60.50z m113 29.70 c0 -0.50 -32.25 -32.70 -32.60 -32.55 -0.20 0.05 -6.55 6.20 -14.20 13.60 -12.90 12.55 -17.70 17.65 -17.70 18.80 0 0.30 12.85 0.45 32.25 0.45 17.75 0 32.25 -0.15 32.25 -0.30z m15.50 0 c0 -0.15 -2.45 -4.50 -5.45 -9.60 -8.45 -14.55 -16.65 -28.70 -17.40 -30.25 -0.90 -1.70 -0.35 -2.15 -8.75 6.75 l-6.60 6.95 13.25 13.25 13.20 13.20 5.85 0 c3.25 0 5.90 -0.15 5.90 -0.30z m-71.25 -12.80 c0.75 -0.90 7.55 -7.90 15.10 -15.50 7.55 -7.65 13.65 -14.10 13.55 -14.35 -0.35 -0.95 -7.45 -8.10 -7.90 -7.95 -0.25 0.05 -3.25 5 -6.65 10.90 -6.65 11.60 -15.80 27.50 -16.20 28.15 -0.10 0.20 0 0.35 0.30 0.35 0.25 0 1.05 -0.75 1.80 -1.60z m43 -26.95 c1.80 -1.70 3.25 -3.25 3.25 -3.45 0 -0.20 -2.75 -5.05 -6.10 -10.80 -3.35 -5.75 -6.60 -11.55 -7.30 -12.85 -1 -2 -1.35 -2.30 -1.85 -1.75 -0.35 0.35 -2.50 3.90 -4.75 7.85 l-4.15 7.15 8.45 8.45 c4.65 4.65 8.60 8.45 8.80 8.45 0.20 0 1.85 -1.40 3.65 -3.05z"/>
 </g>
</svg>