<svg xmlns="http://www.w3.org/2000/svg"  viewBox="0 0 50 50" width="100px" height="100px"><path d="M 1 19 A 1.0001 1.0001 0 1 0 1 21 L 12.5 21 C 13.340812 21 14 21.659188 14 22.5 C 14 23.340812 13.340812 24 12.5 24 L 3 24 C 1.3550302 24 0 25.35503 0 27 L 0 30 A 1.0001 1.0001 0 1 0 2 30 L 2 27 C 2 26.43497 2.4349698 26 3 26 L 12.5 26 C 14.28508 26 15.719786 24.619005 15.921875 22.884766 A 1.0001 1.0001 0 0 0 16 22.5 C 16 20.578812 14.421188 19 12.5 19 L 1 19 z M 26 19 C 24.35503 19 23 20.35503 23 22 L 23 28 C 23 28.56503 22.56503 29 22 29 L 16 29 A 1.0001 1.0001 0 1 0 16 31 L 22 31 C 23.64497 31 25 29.64497 25 28 L 25 22 C 25 21.43497 25.43497 21 26 21 L 32 21 A 1.0001 1.0001 0 1 0 32 19 L 26 19 z M 36 19 A 1.0001 1.0001 0 1 0 36 21 L 46.5 21 C 47.340812 21 48 21.659188 48 22.5 C 48 23.340812 47.340812 24 46.5 24 L 36 24 A 1.0001 1.0001 0 1 0 36 26 L 46.5 26 C 47.340812 26 48 26.659188 48 27.5 C 48 28.340812 47.340812 29 46.5 29 L 36 29 A 1.0001 1.0001 0 1 0 36 31 L 46.5 31 C 48.421188 31 50 29.421188 50 27.5 C 50 26.523075 49.58945 25.637295 48.935547 25 C 49.58945 24.362705 50 23.476925 50 22.5 C 50 20.578812 48.421188 19 46.5 19 L 36 19 z"/></svg>