<?xml version="1.0" encoding="utf-8"?>
<!-- Uploaded to: SVG Repo, www.svgrepo.com, Generator: SVG Repo Mixer Tools -->
<svg fill="#000000" width="800px" height="800px" viewBox="0 0 32 32" version="1.1" xmlns="http://www.w3.org/2000/svg">
<title>playstationvita</title>
<path d="M27.664 14.752c0.113 0.002 0.209 0.072 0.249 0.171l0.001 0.002 1.031 1.906h-2.504l1.022-1.922c0.035-0.083 0.111-0.143 0.201-0.156l0.001-0zM27.889 13.507c-0.392 0.006-0.637 0.442-0.724 0.584-0.089 0.145-2.341 4.407-2.341 4.407h0.722l0.55-1.050h3.175l0.567 1.050h1.156s-2.324-4.384-2.403-4.519c-0.12-0.262-0.369-0.446-0.663-0.472l-0.003-0zM23.846 14.108l0.004 4.345h-1.032v-4.34l-1.962-0.002v-0.604l4.965-0.006-0.003 0.611zM19.135 13.533h1.050v4.949h-1.050zM15.38 18.497c-0.297-0.026-0.545-0.21-0.663-0.466l-0.002-0.005c-0.079-0.134-2.399-4.51-2.399-4.51h1.155l1.922 3.568c0.1 0.2 0.327 0.25 0.45 0.015l1.912-3.583h0.721s-2.247 4.254-2.337 4.399c-0.089 0.146-0.345 0.605-0.759 0.582zM9.332 14.868v2.266c0 0.829-0.374 1.345-1.407 1.345h-2.221v-0.612h1.937c0.354-0.010 0.638-0.299 0.638-0.655 0-0.027-0.002-0.054-0.005-0.080l0 0.003v-2.266c-0.004-0.038-0.007-0.083-0.007-0.128 0-0.678 0.55-1.228 1.228-1.228 0.055 0 0.109 0.004 0.162 0.011l-0.006-0.001h2.206v0.612h-1.908c-0.515-0.021-0.617 0.4-0.617 0.733zM4.973 16.27h-2.377c-0.325 0-0.566 0.247-0.566 0.672v1.543h-1.026v-1.487c-0.004-0.037-0.006-0.080-0.006-0.123 0-0.704 0.57-1.274 1.273-1.275h2.404c0.589-0.023 0.73-0.315 0.73-0.74 0.003-0.023 0.005-0.050 0.005-0.077 0-0.361-0.292-0.653-0.653-0.653-0.029 0-0.057 0.002-0.084 0.005l0.003-0h-3.671v-0.612h3.969c0.056-0.009 0.12-0.014 0.185-0.014 0.7 0 1.267 0.567 1.267 1.267 0 0.029-0.001 0.058-0.003 0.087l0-0.004c0.005 0.044 0.009 0.096 0.009 0.148 0 0.704-0.571 1.275-1.275 1.275-0.065 0-0.128-0.005-0.19-0.014l0.007 0.001z"></path>
</svg>